<svg xmlns="http://www.w3.org/2000/svg" width="600" height="600" viewBox="0 0 600 600" style="overflow: visible;" data-bbox="34.28173063723259 -1.308862415151657e-15 443.4365387255348 511.8141762061898">
  <rect data-uid="o_f40kef84c_4" data-fl-background="" x="0" y="0" width="600" height="600" fill-opacity="0"></rect>
  <g transform="matrix(0.9996369481086731, 0, 0, 0.9996369481086731, 0.09261064976453781, 0.00001906656689243391)" data-uid="o_f40kef84c_5">
    <path d="m113.707 512-58.132-120.208c-43.694-90.351-18.098-196.268 55.842-257.579 46.027-38.166 89.94-78.812 130.239-122.984l10.244-11.229 23.821 31.473c29.393 38.834 51.822 80.128 65.073 121.97z" fill="#00aa95" transform="matrix(1, 0, 0, 1, 0, 0)" data-uid="o_f40kef84c_6"></path>
    <path d="m468.766 149.938-7.743-38.704c-38.269 90.207-136.426 138.139-192.689 200.383-98.392 108.852-154.627 200.383-154.627 200.383h58.256c258.928 0 334.274-174.759 296.803-362.062z" fill="#00cc76" transform="matrix(1, 0, 0, 1, 0, 0)" data-uid="o_f40kef84c_7"></path>
    <path d="m461.022 111.234-14.112 5.649c-34.771 13.919-70.217 25.975-106.117 36.56v.001c-21.412 6.314-42.985 12.104-64.674 17.454-93.258 23.005-162.413 107.214-162.413 207.575v133.527c.001 0 242.122-152.806 347.316-400.766z" fill="#a5e887" transform="matrix(1, 0, 0, 1, 0, 0)" data-uid="o_f40kef84c_8"></path>
  </g>
</svg> 